<?xml version="1.0" encoding="UTF-8"?>
<svg width="700pt" height="700pt" version="1.1" viewBox="0 -100 700 700" xmlns="http://www.w3.org/2000/svg" xmlns:xlink="http://www.w3.org/1999/xlink">

 <g>
  <path d="m350 490c115.9 0 210-94.098 210-210s-94.098-210-210-210-210 94.098-210 210 94.098 210 210 210zm0-17.5c-106.24 0-192.5-86.258-192.5-192.5s86.258-192.5 192.5-192.5 192.5 86.258 192.5 192.5-86.258 192.5-192.5 192.5z" fill-rule="evenodd"/>
  <path d="m288.75 315v-113.75c0-6.9648-2.7656-13.641-7.6914-18.559-4.918-4.9258-11.594-7.6914-18.559-7.6914h-43.75c-4.8281 0-8.75 3.9219-8.75 8.75v148.75c0 4.8281 3.9219 8.75 8.75 8.75h43.75c6.9648 0 13.641-2.7656 18.559-7.6914 4.9258-4.918 7.6914-11.594 7.6914-18.559zm-17.5 0c0 2.3203-0.91797 4.5508-2.5625 6.1875-1.6367 1.6445-3.8672 2.5625-6.1875 2.5625h-35v-131.25h35c2.3203 0 4.5508 0.91797 6.1875 2.5625 1.6445 1.6367 2.5625 3.8672 2.5625 6.1875z" fill-rule="evenodd"/>
  <path d="m274.53 203.17c-2.0742 1.6641-3.2812 4.1719-3.2812 6.832v105c0 3.5 2.082 6.668 5.3008 8.043l44.766 19.188c7.7617 3.3242 13.449 10.184 15.285 18.426 3.8594 17.367 9.5625 43.043 12.188 54.863 1.7148 7.7266 8.5742 13.23 16.492 13.23h0.007812c12.188 0 23.879-4.8398 32.496-13.457 8.6172-8.6172 13.457-20.309 13.457-32.496v-32.797h42.098c13.57 0 26.363-6.293 34.648-17.035 8.2852-10.746 11.113-24.727 7.6641-37.844-8.0664-30.641-18.559-70.5-25.332-96.25-5.0586-19.223-22.434-32.621-42.316-32.621h-79.711c-17.875 0-35.227 6.0898-49.191 17.254-11.762 9.4062-24.578 19.66-24.578 19.66zm91.234 208.07-12.082-54.383c-3.0547-13.738-12.539-25.172-25.473-30.723l-39.461-16.906v-95.023l21.289-17.035c10.867-8.6875 24.359-13.422 38.266-13.422h79.711c11.926 0 22.355 8.043 25.391 19.566 0 0.007813 25.324 96.258 25.324 96.258 2.0742 7.8672 0.375 16.258-4.5938 22.707-4.9688 6.4414-12.652 10.219-20.789 10.219h-50.848c-4.8281 0-8.75 3.9219-8.75 8.75v41.547c0 7.543-3 14.789-8.3281 20.125-5.2344 5.2227-12.277 8.207-19.652 8.3203z" fill-rule="evenodd"/>
  <use x="70" y="691.25" xlink:href="#o"/>
  <use x="102.109375" y="691.25" xlink:href="#j"/>
  <use x="123.683594" y="691.25" xlink:href="#d"/>
  <use x="153.355469" y="691.25" xlink:href="#c"/>
  <use x="182.878906" y="691.25" xlink:href="#i"/>
  <use x="203.792969" y="691.25" xlink:href="#d"/>
  <use x="233.464844" y="691.25" xlink:href="#b"/>
  <use x="280.011719" y="691.25" xlink:href="#a"/>
  <use x="311.328125" y="691.25" xlink:href="#h"/>
  <use x="355.078125" y="691.25" xlink:href="#g"/>
  <use x="388.9375" y="691.25" xlink:href="#a"/>
  <use x="420.257812" y="691.25" xlink:href="#b"/>
  <use x="451.574219" y="691.25" xlink:href="#f"/>
  <use x="482.71875" y="691.25" xlink:href="#e"/>
  <use x="497.714844" y="691.25" xlink:href="#e"/>
  <use x="512.710938" y="691.25" xlink:href="#n"/>
  <use x="542.769531" y="691.25" xlink:href="#m"/>
  <use x="589.148438" y="691.25" xlink:href="#l"/>
  <use x="619.03125" y="691.25" xlink:href="#c"/>
  <use x="648.554688" y="691.25" xlink:href="#f"/>
  <use x="679.703125" y="691.25" xlink:href="#k"/>
 </g>
</svg>
