<?xml version="1.0" encoding="UTF-8"?>
<svg width="700pt" height="700pt" version="1.1" viewBox="0 -110 700 700" xmlns="http://www.w3.org/2000/svg" xmlns:xlink="http://www.w3.org/1999/xlink">
 <g>
   <path d="m350 490c115.9 0 210-94.098 210-210s-94.098-210-210-210-210 94.098-210 210 94.098 210 210 210zm0-17.5c-106.24 0-192.5-86.258-192.5-192.5s86.258-192.5 192.5-192.5 192.5 86.258 192.5 192.5-86.258 192.5-192.5 192.5z" fill-rule="evenodd"/>
  <path d="m288.75 245c0-6.9648-2.7656-13.641-7.6914-18.559-4.918-4.9258-11.594-7.6914-18.559-7.6914h-43.75c-4.8281 0-8.75 3.9219-8.75 8.75v148.75c0 4.8281 3.9219 8.75 8.75 8.75h43.75c6.9648 0 13.641-2.7656 18.559-7.6914 4.9258-4.918 7.6914-11.594 7.6914-18.559zm-17.5 0v113.75c0 2.3203-0.91797 4.5508-2.5625 6.1875-1.6367 1.6445-3.8672 2.5625-6.1875 2.5625h-35v-131.25h35c2.3203 0 4.5508 0.91797 6.1875 2.5625 1.6445 1.6367 2.5625 3.8672 2.5625 6.1875z" fill-rule="evenodd"/>
  <path d="m271.25 350c0 2.6602 1.207 5.1719 3.2812 6.832 0 0 12.82 10.254 24.578 19.66 13.965 11.164 31.316 17.254 49.191 17.254h79.711c19.879 0 37.258-13.395 42.316-32.621 6.7734-25.75 17.266-65.609 25.332-96.25 3.4492-13.117 0.62109-27.098-7.6641-37.844s-21.078-17.035-34.648-17.035h-42.098v-32.797c0-12.188-4.8398-23.879-13.457-32.496-8.6172-8.6172-20.309-13.457-32.496-13.457h-0.007813c-7.918 0-14.777 5.5039-16.492 13.23-2.625 11.82-8.3281 37.492-12.188 54.863-1.8359 8.2422-7.5234 15.102-15.285 18.426l-44.766 19.188c-3.2188 1.375-5.3008 4.543-5.3008 8.043v105zm94.516-201.24c7.375 0.11328 14.422 3.0977 19.652 8.3203 5.3281 5.3359 8.3281 12.582 8.3281 20.125v41.547c0 4.8281 3.9219 8.75 8.75 8.75h50.848c8.1367 0 15.82 3.7812 20.789 10.219 4.9688 6.4492 6.668 14.84 4.5938 22.707l-25.324 96.25c-3.0352 11.531-13.465 19.574-25.391 19.574h-79.711c-13.902 0-27.395-4.7344-38.266-13.422l-21.289-17.035v-95.023l39.461-16.906c12.934-5.5469 22.418-16.984 25.473-30.723l12.082-54.383z" fill-rule="evenodd"/>
  <use x="70" y="691.25" xlink:href="#o"/>
  <use x="102.109375" y="691.25" xlink:href="#j"/>
  <use x="123.683594" y="691.25" xlink:href="#d"/>
  <use x="153.355469" y="691.25" xlink:href="#c"/>
  <use x="182.878906" y="691.25" xlink:href="#i"/>
  <use x="203.792969" y="691.25" xlink:href="#d"/>
  <use x="233.464844" y="691.25" xlink:href="#b"/>
  <use x="280.011719" y="691.25" xlink:href="#a"/>
  <use x="311.328125" y="691.25" xlink:href="#h"/>
  <use x="355.078125" y="691.25" xlink:href="#g"/>
  <use x="388.9375" y="691.25" xlink:href="#a"/>
  <use x="420.257812" y="691.25" xlink:href="#b"/>
  <use x="451.574219" y="691.25" xlink:href="#f"/>
  <use x="482.71875" y="691.25" xlink:href="#e"/>
  <use x="497.714844" y="691.25" xlink:href="#e"/>
  <use x="512.710938" y="691.25" xlink:href="#n"/>
  <use x="542.769531" y="691.25" xlink:href="#m"/>
  <use x="589.148438" y="691.25" xlink:href="#l"/>
  <use x="619.03125" y="691.25" xlink:href="#c"/>
  <use x="648.554688" y="691.25" xlink:href="#f"/>
  <use x="679.703125" y="691.25" xlink:href="#k"/>
 </g>
</svg>
